<svg width="16" height="16" viewBox="0 0 16 16" fill="none" xmlns="http://www.w3.org/2000/svg">
<g clip-path="url(#clip0_2043_3310)">
<path d="M8.02154 12.6667C8.28428 12.6671 8.54451 12.6156 8.78729 12.5152C9.03006 12.4147 9.2506 12.2673 9.43621 12.0813L12.0489 9.46667L11.1062 8.52667L8.68421 10.9493L8.66687 0H7.33354L7.35087 10.9387L4.93754 8.52533L3.99487 9.46667L6.60754 12.0793C6.79293 12.2655 7.01328 12.4133 7.25594 12.5141C7.4986 12.6149 7.75878 12.6667 8.02154 12.6667Z" fill="#ffffff"/>
<path d="M14.6667 10.6669V14.0002C14.6667 14.177 14.5964 14.3466 14.4714 14.4716C14.3464 14.5966 14.1768 14.6669 14 14.6669H2C1.82319 14.6669 1.65362 14.5966 1.5286 14.4716C1.40357 14.3466 1.33333 14.177 1.33333 14.0002V10.6669H0V14.0002C0 14.5306 0.210714 15.0394 0.585786 15.4144C0.960859 15.7895 1.46957 16.0002 2 16.0002H14C14.5304 16.0002 15.0391 15.7895 15.4142 15.4144C15.7893 15.0394 16 14.5306 16 14.0002V10.6669H14.6667Z" fill="#ffffff"/>
</g>
<defs>
<clipPath id="clip0_2043_3310">
<rect width="16" height="16" fill="white"/>
</clipPath>
</defs>
</svg>
