<svg width="1439" height="104" viewBox="0 0 1439 104" fill="none" xmlns="http://www.w3.org/2000/svg">
<line x1="0.507745" y1="98.1295" x2="145.508" y2="16.1296" stroke="white" stroke-width="2"/>
<line x1="307.65" y1="76.9366" x2="144.65" y2="15.9366" stroke="white" stroke-width="2"/>
<line x1="307.629" y1="77.0715" x2="497.629" y2="1.07153" stroke="white" stroke-width="2"/>
<line x1="638.299" y1="2.04587" x2="928.299" y2="93.0459" stroke="white" stroke-width="2"/>
<line x1="927.693" y1="93.0484" x2="1122.69" y2="30.0484" stroke="white" stroke-width="2"/>
<line x1="497.007" y1="1.00003" x2="638.007" y2="2.02176" stroke="white" stroke-width="2"/>
<path d="M307.647 77.2289C307.656 77.2985 307.875 77.3587 307.838 77.3771" stroke="white" stroke-linecap="round"/>
<path d="M307.668 77.5465C307.637 77.5189 307.602 77.5254 307.562 77.5254" stroke="white" stroke-linecap="round"/>
<path d="M638.26 2.03045V1.99042" stroke="white" stroke-linecap="round"/>
<path d="M638.26 1.95037C638.266 1.90714 638.321 1.86861 638.34 1.83026" stroke="white" stroke-linecap="round"/>
<path d="M638.42 1.63012C638.425 1.59324 638.433 1.60361 638.46 1.59009" stroke="white" stroke-linecap="round"/>
<path d="M637.876 2.38705C637.882 2.37087 637.999 2.38744 638.02 2.38705C638.063 2.38624 638.076 2.38398 638.117 2.39927C638.132 2.40481 638.172 2.4341 638.136 2.44814C638.112 2.45806 638.085 2.45472 638.058 2.45472C638.041 2.45472 638.024 2.45472 638.007 2.45472C637.992 2.45472 637.935 2.4801 637.969 2.4801C638.053 2.4801 637.992 2.48856 637.944 2.48856" stroke="white" stroke-linecap="round"/>
<line x1="1123.22" y1="30.0254" x2="1441.22" y2="103.025" stroke="white" stroke-width="2"/>
</svg>
