<svg width="1440" height="138" viewBox="0 0 1440 138" fill="none" xmlns="http://www.w3.org/2000/svg">
<line x1="-0.492255" y1="98.1295" x2="144.508" y2="16.1296" stroke="transparent" stroke-width="2"/>
<line x1="306.65" y1="76.9366" x2="143.65" y2="15.9366" stroke="transparent" stroke-width="2"/>
<line x1="306.629" y1="77.0715" x2="496.629" y2="1.07153" stroke="transparent" stroke-width="2"/>
<line x1="637.417" y1="2.09123" x2="931.417" y2="137.091" stroke="transparent" stroke-width="2"/>
<line x1="930.511" y1="137.128" x2="1121.51" y2="30.1276" stroke="transparent" stroke-width="2"/>
<line x1="496.007" y1="1.00003" x2="637.007" y2="2.02176" stroke="transparent" stroke-width="2"/>
<path d="M306.647 77.2289C306.656 77.2985 306.875 77.3587 306.838 77.3771" stroke="transparent" stroke-linecap="round"/>
<path d="M306.668 77.5465C306.637 77.5189 306.602 77.5254 306.562 77.5254" stroke="transparent" stroke-linecap="round"/>
<path d="M637.26 2.03045V1.99042" stroke="transparent" stroke-linecap="round"/>
<path d="M637.26 1.95037C637.266 1.90714 637.321 1.86861 637.34 1.83026" stroke="transparent" stroke-linecap="round"/>
<path d="M637.42 1.63012C637.425 1.59324 637.433 1.60361 637.46 1.59009" stroke="whitransparentte" stroke-linecap="round"/>
<path d="M636.876 2.38705C636.882 2.37087 636.999 2.38744 637.02 2.38705C637.063 2.38624 637.076 2.38398 637.117 2.39927C637.132 2.40481 637.172 2.4341 637.136 2.44814C637.112 2.45806 637.085 2.45472 637.058 2.45472C637.041 2.45472 637.024 2.45472 637.007 2.45472C636.992 2.45472 636.935 2.4801 636.969 2.4801C637.053 2.4801 636.992 2.48856 636.944 2.48856" stroke="transparent" stroke-linecap="round"/>
<path d="M636.969 1.60874C636.969 1.56589 636.995 1.53177 636.995 1.49218C636.995 1.46912 636.978 1.54247 636.978 1.55798" stroke="transparent" stroke-linecap="round"/>
<path d="M636.952 1.54107C637.071 1.54107 637.189 1.54953 637.308 1.54953C637.332 1.54953 637.356 1.54953 637.381 1.54953C637.4 1.54953 637.477 1.56225 637.492 1.54765C637.508 1.53133 637.448 1.53382 637.426 1.52603C637.39 1.51324 637.355 1.51569 637.318 1.51569C637.276 1.51569 637.233 1.51569 637.191 1.51569C637.178 1.51569 637.14 1.51569 637.152 1.51569C637.224 1.51569 637.295 1.52585 637.366 1.53073C637.43 1.53514 637.489 1.56289 637.553 1.56645C637.588 1.56837 637.534 1.58188 637.528 1.58337C637.491 1.59187 637.455 1.59183 637.418 1.59183" stroke="transparent" stroke-linecap="round"/>
<path d="M1121.92 30.2744V30.2662" stroke="transparent" stroke-linecap="round"/>
<path d="M1121.81 30.1431C1121.79 30.1414 1121.8 30.1203 1121.8 30.1102" stroke="transparent" stroke-linecap="round"/>
<path d="M1121.87 29.9133C1121.89 29.9094 1121.9 29.8809 1121.9 29.864" stroke="transparent" stroke-linecap="round"/>
<path d="M1121.97 29.8229C1121.98 29.8182 1121.99 29.8148 1121.99 29.8065" stroke="transparent" stroke-linecap="round"/>
<path d="M1121.85 29.8558C1121.8 29.8571 1121.75 29.864 1121.71 29.864" stroke="transparent" stroke-linecap="round"/>
<path d="M1121.58 29.8476C1121.54 29.8459 1121.5 29.8399 1121.47 29.8312" stroke="transparent" stroke-linecap="round"/>
<path d="M1121.28 29.8147V29.8065" stroke="transparent" stroke-linecap="round"/>
<path d="M1121.39 29.6424C1121.39 29.6365 1121.39 29.633 1121.4 29.626" stroke="transparent" stroke-linecap="round"/>
<path d="M1121.21 29.7245C1121.21 29.7169 1121.21 29.719 1121.21 29.7162" stroke="transparent" stroke-linecap="round"/>
<path d="M1121.77 29.6178V29.626" stroke="transparent" stroke-linecap="round"/>
<path d="M1121.94 29.6506C1121.97 29.6506 1122 29.6407 1122.03 29.6342" stroke="transparent" stroke-linecap="round"/>
<path d="M1122.33 29.5767C1122.33 29.5551 1122.32 29.5603 1122.3 29.5603" stroke="transparent" stroke-linecap="round"/>
<path d="M1122.14 29.5685C1122.12 29.5474 1122.09 29.5468 1122.07 29.5439" stroke="transparent" stroke-linecap="round"/>
<path d="M1121.94 29.4783H1121.97" stroke="transparent" stroke-linecap="round"/>
<path d="M1121.84 29.3879H1121.89" stroke="transparent" stroke-linecap="round"/>
<path d="M1121.75 29.4701C1121.75 29.5219 1121.74 29.5539 1121.72 29.6032C1121.71 29.6382 1121.71 29.6662 1121.66 29.647C1121.63 29.6351 1121.59 29.6163 1121.62 29.6009C1121.65 29.5898 1121.66 29.5514 1121.69 29.5362C1121.7 29.5243 1121.71 29.5068 1121.72 29.4965C1121.75 29.4837 1121.72 29.5178 1121.72 29.5275C1121.71 29.5398 1121.66 29.5552 1121.64 29.5603C1121.59 29.5796 1121.53 29.6021 1121.48 29.6091C1121.46 29.6114 1121.44 29.6163 1121.42 29.6306C1121.41 29.6433 1121.4 29.6555 1121.38 29.6584C1121.36 29.6605 1121.36 29.66 1121.38 29.6584C1121.41 29.6547 1121.45 29.6367 1121.48 29.6224C1121.55 29.5902 1121.6 29.535 1121.67 29.4992C1121.69 29.4879 1121.72 29.4839 1121.74 29.4787C1121.77 29.4738 1121.76 29.4542 1121.78 29.4454" stroke="transparent" stroke-linecap="round"/>
<path d="M1122.1 29.4947C1122.1 29.4613 1122.12 29.47 1122.15 29.47" stroke="transparent" stroke-linecap="round"/>
<path d="M1121.94 30.34C1121.92 30.3904 1121.92 30.4435 1121.92 30.496" stroke="transparent" stroke-linecap="round"/>
<line x1="1122.22" y1="30.0254" x2="1440.22" y2="103.025" stroke="transparent" stroke-width="2"/>
</svg>
